<svg width="64" height="64" viewBox="0 0 64 64" fill="none" xmlns="http://www.w3.org/2000/svg">
<path d="M32 55.9333L29.2667 53.4667C24.5658 49.1502 20.6796 45.4267 17.608 42.296C14.536 39.1653 12.0889 36.3667 10.2667 33.9C8.44448 31.4333 7.16671 29.2 6.43337 27.2C5.70004 25.2 5.33337 23.1778 5.33337 21.1333C5.33337 17.1267 6.67782 13.7804 9.36671 11.0947C12.0556 8.40933 15.3778 7.06667 19.3334 7.06667C21.8667 7.06667 24.2112 7.66667 26.3667 8.86667C28.5223 10.0667 30.4 11.8 32 14.0667C33.8667 11.6667 35.8445 9.9 37.9334 8.76667C40.0223 7.63333 42.2667 7.06667 44.6667 7.06667C48.6223 7.06667 51.9445 8.40933 54.6334 11.0947C57.3223 13.7804 58.6667 17.1267 58.6667 21.1333C58.6667 23.1778 58.3 25.2 57.5667 27.2C56.8334 29.2 55.5556 31.4333 53.7334 33.9C51.9111 36.3667 49.464 39.1653 46.392 42.296C43.3205 45.4267 39.4343 49.1502 34.7334 53.4667L32 55.9333ZM32 50.6667C36.4996 46.5333 40.2023 42.9889 43.108 40.0333C46.0138 37.0778 48.3223 34.4889 50.0334 32.2667C51.7445 30.0444 52.9445 28.0636 53.6334 26.324C54.3223 24.5849 54.6667 22.8578 54.6667 21.1427C54.6667 18.2031 53.7334 15.7889 51.8667 13.9C50 12.0111 47.6049 11.0667 44.6814 11.0667C42.3916 11.0667 40.2723 11.7667 38.3234 13.1667C36.3745 14.5667 34.8 16.5333 33.6 19.0667H30.3334C29.1778 16.5778 27.6256 14.6222 25.6767 13.2C23.7278 11.7778 21.6085 11.0667 19.3187 11.0667C16.3952 11.0667 14 12.0111 12.1334 13.9C10.2667 15.7889 9.33337 18.2071 9.33337 21.1547C9.33337 22.8738 9.67782 24.6111 10.3667 26.3667C11.0556 28.1222 12.2556 30.1222 13.9667 32.3667C15.6778 34.6111 18 37.2 20.9334 40.1333C23.8667 43.0667 27.5556 46.5778 32 50.6667Z" fill="#E22F2F"/>
</svg>
