<svg width="64" height="64" viewBox="0 0 64 64" fill="none" xmlns="http://www.w3.org/2000/svg">
<path d="M19 58.6667V34.1333C16.6888 33.6444 14.7222 32.4778 13.1 30.6333C11.4777 28.7889 10.6666 26.5778 10.6666 24V5.33333H14.6666V24H19V5.33333H23V24H27.3333V5.33333H31.3333V24C31.3333 26.5778 30.5222 28.7889 28.9 30.6333C27.2777 32.4778 25.3111 33.6444 23 34.1333V58.6667H19ZM46.6666 58.6667V37.3333H39V17C39 13.4889 40.0666 10.6667 42.2 8.53333C44.3333 6.39999 47.1555 5.33333 50.6666 5.33333V58.6667H46.6666Z" fill="#E22F2F"/>
</svg>
