<svg width="64" height="64" viewBox="0 0 64 64" fill="none" xmlns="http://www.w3.org/2000/svg">
<path d="M32 45.6C36.8445 41.9111 40.5 38.1444 42.9667 34.3C45.4334 30.4555 46.6667 27.0222 46.6667 24C46.6667 19.6889 45.3 16.1667 42.5667 13.4333C39.8334 10.7 36.3111 9.33333 32 9.33333C27.6889 9.33333 24.1667 10.7 21.4334 13.4333C18.7 16.1667 17.3334 19.6889 17.3334 24C17.3334 26.9778 18.5667 30.3889 21.0334 34.2333C23.5 38.0778 27.1556 41.8667 32 45.6ZM32 50.6667C25.6889 46.0889 21 41.5111 17.9334 36.9333C14.8667 32.3555 13.3334 28.0444 13.3334 24C13.3334 18.5333 15.0778 14.0555 18.5667 10.5667C22.0556 7.07777 26.5334 5.33333 32 5.33333C37.4667 5.33333 41.9445 7.07777 45.4334 10.5667C48.9223 14.0555 50.6667 18.5333 50.6667 24C50.6667 28.0444 49.1334 32.3555 46.0667 36.9333C43 41.5111 38.3111 46.0889 32 50.6667ZM31.9334 29.3333C33.4445 29.3333 34.7223 28.8111 35.7667 27.7667C36.8111 26.7222 37.3334 25.4667 37.3334 24C37.3334 22.5333 36.8111 21.2778 35.7667 20.2333C34.7223 19.1889 33.4445 18.6667 31.9334 18.6667C30.4667 18.6667 29.2223 19.1889 28.2 20.2333C27.1778 21.2778 26.6667 22.5333 26.6667 24C26.6667 25.4667 27.1778 26.7222 28.2 27.7667C29.2223 28.8111 30.4667 29.3333 31.9334 29.3333ZM13.3334 58.6667V54.6667H50.6667V58.6667H13.3334Z" fill="#E22F2F"/>
</svg>
