<svg width="64" height="64" viewBox="0 0 64 64" fill="none" xmlns="http://www.w3.org/2000/svg">
<path d="M30.0667 56V50.4C27.5334 49.9556 25.4556 48.9889 23.8334 47.5C22.2112 46.0111 21.0445 44.1333 20.3334 41.8667L24.0667 40.3333C24.8223 42.4667 25.9112 44.0556 27.3334 45.1C28.7556 46.1444 30.4667 46.6667 32.4667 46.6667C34.6 46.6667 36.3556 46.1333 37.7334 45.0667C39.1112 44 39.8 42.5333 39.8 40.6667C39.8 38.7111 39.1889 37.2 37.9667 36.1333C36.7445 35.0667 34.4445 33.9778 31.0667 32.8667C27.8667 31.8444 25.4778 30.4889 23.9 28.8C22.3223 27.1111 21.5334 25 21.5334 22.4667C21.5334 20.0222 22.3223 17.9778 23.9 16.3333C25.4778 14.6889 27.5334 13.7556 30.0667 13.5333V8H34.0667V13.5333C36.0667 13.7556 37.7889 14.4111 39.2334 15.5C40.6778 16.5889 41.7778 17.9778 42.5334 19.6667L38.8 21.2667C38.1778 19.8444 37.3445 18.8111 36.3 18.1667C35.2556 17.5222 33.8889 17.2 32.2 17.2C30.1556 17.2 28.5334 17.6667 27.3334 18.6C26.1334 19.5333 25.5334 20.8 25.5334 22.4C25.5334 24.0889 26.2 25.4556 27.5334 26.5C28.8667 27.5444 31.3334 28.6222 34.9334 29.7333C37.9556 30.6667 40.1889 32.0111 41.6334 33.7667C43.0778 35.5222 43.8 37.7333 43.8 40.4C43.8 43.2 42.9778 45.4556 41.3334 47.1667C39.6889 48.8778 37.2667 49.9778 34.0667 50.4667V56H30.0667Z" fill="#E22F2F"/>
</svg>
