<svg width="64" height="64" viewBox="0 0 64 64" fill="none" xmlns="http://www.w3.org/2000/svg">
<path d="M39.4667 43.8667L30 34.4V21.3333H34V32.7333L42.2667 41L39.4667 43.8667ZM30 15.3333V9.33333H34V15.3333H30ZM48.6667 34V30H54.6667V34H48.6667ZM30 54.6667V48.6667H34V54.6667H30ZM9.33337 34V30H15.3334V34H9.33337ZM32.018 58.6667C28.3407 58.6667 24.8852 57.9667 21.6514 56.5667C18.4172 55.1667 15.5889 53.2555 13.1667 50.8333C10.7445 48.4111 8.83337 45.5813 7.43337 42.344C6.03337 39.1067 5.33337 35.6475 5.33337 31.9667C5.33337 28.2858 6.03337 24.8267 7.43337 21.5893C8.83337 18.352 10.7445 15.5333 13.1667 13.1333C15.5889 10.7333 18.4187 8.83333 21.656 7.43333C24.8934 6.03333 28.3525 5.33333 32.0334 5.33333C35.7143 5.33333 39.1734 6.03333 42.4107 7.43333C45.648 8.83333 48.4667 10.7333 50.8667 13.1333C53.2667 15.5333 55.1667 18.3555 56.5667 21.6C57.9667 24.8444 58.6667 28.3051 58.6667 31.982C58.6667 35.6593 57.9667 39.1149 56.5667 42.3487C55.1667 45.5829 53.2667 48.4071 50.8667 50.8213C48.4667 53.2351 45.6445 55.1462 42.4 56.5547C39.1556 57.9627 35.6949 58.6667 32.018 58.6667ZM32.0334 54.6667C38.3223 54.6667 43.6667 52.4555 48.0667 48.0333C52.4667 43.6111 54.6667 38.2556 54.6667 31.9667C54.6667 25.6778 52.4709 20.3333 48.0794 15.9333C43.6878 11.5333 38.328 9.33333 32 9.33333C25.7334 9.33333 20.3889 11.5291 15.9667 15.9207C11.5445 20.3122 9.33337 25.672 9.33337 32C9.33337 38.2667 11.5445 43.6111 15.9667 48.0333C20.3889 52.4555 25.7445 54.6667 32.0334 54.6667Z" fill="#287233"/>
</svg>
