<svg width="64" height="64" viewBox="0 0 64 64" fill="none" xmlns="http://www.w3.org/2000/svg">
<path d="M19.3333 22.6667V18.6667H56V22.6667H19.3333ZM19.3333 34V30H56V34H19.3333ZM19.3333 45.3333V41.3333H56V45.3333H19.3333ZM10 22.6667C9.46667 22.6667 9 22.4667 8.6 22.0667C8.2 21.6667 8 21.1889 8 20.6333C8 20.0778 8.2 19.6111 8.6 19.2333C9 18.8556 9.47778 18.6667 10.0333 18.6667C10.5889 18.6667 11.0556 18.8582 11.4333 19.2413C11.8111 19.6249 12 20.1 12 20.6667C12 21.2 11.8084 21.6667 11.4253 22.0667C11.0418 22.4667 10.5667 22.6667 10 22.6667ZM10 34C9.46667 34 9 33.8 8.6 33.4C8.2 33 8 32.5222 8 31.9667C8 31.4111 8.2 30.9444 8.6 30.5667C9 30.1889 9.47778 30 10.0333 30C10.5889 30 11.0556 30.1916 11.4333 30.5747C11.8111 30.9582 12 31.4333 12 32C12 32.5333 11.8084 33 11.4253 33.4C11.0418 33.8 10.5667 34 10 34ZM10 45.3333C9.46667 45.3333 9 45.1333 8.6 44.7333C8.2 44.3333 8 43.8556 8 43.3C8 42.7444 8.2 42.2778 8.6 41.9C9 41.5222 9.47778 41.3333 10.0333 41.3333C10.5889 41.3333 11.0556 41.5249 11.4333 41.908C11.8111 42.2916 12 42.7667 12 43.3333C12 43.8667 11.8084 44.3333 11.4253 44.7333C11.0418 45.1333 10.5667 45.3333 10 45.3333Z" fill="#287233"/>
</svg>
